
<svg xmlns="http://www.w3.org/2000/svg" viewBox="0 0 533.5 544.3" width="24" height="24">
  <path fill="#4285F4" d="M533.5 278.4c0-17.4-1.4-34-4.1-50.2H272v95h147.3c-6.3 34.1-25.1 63-53.3 82.3v68h85.9c50.2-46.2 81.6-114.2 81.6-195.1z"/>
  <path fill="#34A853" d="M272 544.3c72.3 0 132.9-23.9 177.2-65.1l-85.9-68c-23.9 16.1-54.4 25.6-91.3 25.6-70.2 0-129.6-47.4-150.8-111.2H32.7v69.7c44.2 87.7 135.4 149 239.3 149z"/>
  <path fill="#FBBC04" d="M121.2 325.6c-10.2-30.6-10.2-63.8 0-94.4V161.5H32.7c-29.3 58.7-29.3 128.1 0 186.8l88.5-69.7z"/>
  <path fill="#EA4335" d="M272 107.7c39.3 0 74.6 13.5 102.4 40.1l76.6-76.6C404.9 24.6 346.5 0 272 0 168.1 0 76.9 61.3 32.7 149l88.5 69.7c21.2-63.8 80.6-111.2 150.8-111.2z"/>
</svg>
