<?xml version="1.0" standalone="no"?>
<!DOCTYPE svg PUBLIC "-//W3C//DTD SVG 20010904//EN"
 "http://www.w3.org/TR/2001/REC-SVG-20010904/DTD/svg10.dtd">
<svg version="1.0" xmlns="http://www.w3.org/2000/svg"
 width="1536.000000pt" height="1024.000000pt" viewBox="0 0 1536.000000 1024.000000"
 preserveAspectRatio="xMidYMid meet">

<g transform="translate(0.000000,1024.000000) scale(0.100000,-0.100000)"
fill="#000000" stroke="none">
<path d="M11180 6646 c-206 -39 -402 -175 -523 -362 -93 -143 -118 -229 -124
-426 -5 -147 -4 -162 21 -248 29 -101 51 -148 107 -232 53 -78 167 -191 186
-184 8 4 27 -3 43 -14 36 -26 52 -25 21 0 -18 15 -19 20 -7 20 9 0 16 -4 16
-9 0 -5 7 -12 16 -15 14 -5 15 -4 4 9 -10 12 -9 15 5 15 15 0 16 2 4 17 -10
11 -10 14 -1 9 7 -4 12 -2 12 7 0 14 -50 54 -59 48 -5 -4 -21 21 -21 33 0 6
12 -2 28 -16 15 -13 44 -35 65 -47 20 -13 34 -27 31 -33 -4 -6 -2 -8 4 -4 6 3
30 -1 54 -10 53 -21 74 -38 27 -23 -19 7 -51 14 -71 16 -21 3 -38 10 -38 16 0
6 -6 2 -14 -8 -7 -10 -12 -32 -9 -48 4 -27 3 -28 -19 -16 -13 6 -36 21 -51 32
-16 10 -30 17 -33 14 -7 -6 67 -57 121 -84 111 -56 172 -68 335 -68 168 1 225
11 353 65 127 54 260 163 329 268 69 104 74 112 103 192 111 307 38 636 -194
869 -114 114 -208 167 -375 210 -92 24 -240 27 -346 7z m133 -28 c8 -29 1 -36
-8 -9 -9 30 -64 28 -87 -3 -9 -13 -13 -28 -8 -35 8 -14 71 -18 89 -6 6 3 11 2
11 -3 0 -5 11 -7 25 -4 14 2 22 9 19 16 -3 6 0 4 8 -4 12 -14 68 -22 68 -10 0
3 16 4 35 2 19 -2 35 -8 35 -13 0 -5 8 -9 18 -8 9 0 12 3 6 5 -7 3 -10 14 -7
24 3 12 0 20 -6 20 -7 0 -9 5 -5 13 6 9 4 9 -8 -1 -13 -10 -17 -10 -22 3 -3 8
-13 15 -21 15 -9 0 -14 -4 -10 -9 3 -5 0 -13 -6 -17 -8 -5 -10 -1 -7 14 5 19
2 21 -36 19 -23 -2 -46 -6 -52 -10 -6 -3 -11 1 -11 10 0 14 12 15 85 9 46 -3
89 -9 95 -13 6 -3 22 -7 36 -9 34 -3 161 -52 137 -53 -12 -1 -16 -6 -12 -17 3
-8 2 -12 -4 -9 -6 3 -10 1 -10 -4 0 -6 -6 -11 -14 -11 -9 0 -13 7 -11 19 3 15
-2 19 -21 16 -13 -1 -24 1 -24 5 0 4 -7 7 -15 7 -10 0 -13 -6 -10 -18 3 -9 1
-20 -4 -24 -7 -4 -8 1 -4 11 4 11 2 15 -6 13 -7 -3 -12 -8 -11 -13 2 -10 -20
-26 -35 -26 -5 0 -4 4 3 8 15 10 -292 8 -328 -2 -23 -6 -24 -6 -2 3 12 6 22
15 22 21 0 15 -16 12 -30 -5 -15 -18 -45 -21 -34 -3 5 7 3 8 -6 3 -10 -6 -9
-11 5 -22 16 -11 16 -13 3 -13 -9 0 -25 -3 -35 -6 -11 -4 -14 -3 -6 3 6 4 15
22 19 38 7 27 6 29 -9 16 -9 -7 -14 -18 -10 -25 4 -7 1 -6 -9 1 -8 7 -18 10
-22 6 -4 -4 -4 0 -1 9 8 19 -35 23 -78 6 -26 -10 -28 -14 -22 -52 7 -39 6 -40
-9 -21 -15 19 -15 19 -16 1 0 -16 -2 -17 -17 -5 -14 12 -15 12 -9 0 6 -9 1 -8
-16 3 -23 15 -27 15 -38 1 -10 -12 -9 -15 6 -16 14 -1 12 -3 -6 -8 -17 -5 -24
-13 -22 -25 2 -12 -1 -16 -9 -10 -7 4 -10 3 -6 -3 9 -14 -17 -24 -40 -17 -13
4 -11 0 6 -13 16 -14 21 -26 17 -40 -11 -36 20 -35 51 1 15 18 33 34 38 36 6
1 9 6 8 11 -2 5 3 9 10 9 14 0 72 61 69 73 -1 4 3 7 8 7 6 0 10 -4 10 -10 0
-5 5 -10 11 -10 5 0 7 5 4 11 -4 6 -1 9 6 8 8 -1 22 1 32 6 10 4 20 5 23 3 7
-8 -89 -52 -106 -49 -8 2 -12 0 -8 -4 4 -4 -24 -34 -63 -68 -38 -33 -69 -65
-69 -71 0 -6 -5 -4 -11 4 -9 13 -10 13 -7 0 3 -19 -51 -101 -63 -95 -4 3 -11
0 -15 -6 -4 -8 -3 -9 4 -5 7 4 12 4 12 1 0 -10 -30 -65 -36 -65 -2 0 -1 8 4
18 6 9 9 36 7 60 -2 41 -2 42 16 26 17 -16 18 -15 14 6 -4 19 -2 20 12 8 15
-11 16 -11 10 4 -4 11 -2 17 6 15 7 -1 13 10 15 26 2 19 -1 27 -12 27 -10 0
-16 9 -16 24 0 14 -5 28 -11 32 -7 4 3 21 26 44 47 48 125 105 125 91 0 -6 7
-11 15 -11 18 0 20 17 3 23 -7 2 0 10 17 18 17 7 33 17 36 22 4 5 18 10 32 10
14 1 23 5 21 9 -5 7 106 45 151 51 17 2 51 5 76 6 40 1 47 -2 52 -21z m67 -16
c0 -5 -7 -9 -15 -9 -8 0 -15 4 -15 9 0 4 7 8 15 8 8 0 15 -4 15 -8z m428 -109
c17 -13 32 -28 32 -34 0 -16 -32 -10 -46 9 -12 16 -15 15 -39 -9 -19 -18 -22
-26 -11 -26 8 0 12 5 9 10 -3 6 -1 7 5 3 16 -10 15 -39 0 -30 -10 6 -10 4 0
-7 19 -20 14 -31 -8 -19 -11 6 -17 16 -14 22 4 6 3 9 -2 5 -5 -3 -27 6 -49 19
-39 23 -42 34 -4 14 13 -7 19 -7 19 0 0 5 -8 11 -17 11 -10 1 -25 3 -33 4 -8
1 -21 3 -28 4 -7 0 -10 6 -7 11 3 6 3 10 -2 11 -51 4 -75 8 -81 14 -4 4 8 4
27 0 29 -6 33 -5 28 9 -4 10 -3 15 3 11 6 -3 10 -1 10 5 0 6 5 8 12 4 9 -6 9
-9 0 -12 -7 -2 -12 -8 -12 -14 0 -6 7 -8 15 -4 9 3 15 0 15 -8 0 -9 15 -15 44
-17 25 -2 42 0 38 5 -3 5 2 7 11 3 11 -4 20 1 27 13 15 28 -8 37 -26 11 -8
-12 -20 -21 -26 -21 -7 0 -2 9 10 21 13 11 19 25 15 32 -8 13 31 -10 85 -50z
m-269 -10 c212 -66 389 -257 446 -478 16 -62 22 -227 10 -280 -20 -88 -62
-194 -101 -252 -24 -36 -44 -68 -44 -71 0 -3 12 5 28 19 l27 24 -22 -26 c-26
-29 -31 -48 -8 -29 13 11 14 10 9 -4 -9 -23 -41 -22 -36 2 4 19 -1 15 -49 -29
-97 -91 -210 -149 -344 -175 -304 -60 -585 79 -722 357 -85 173 -85 405 1 584
112 230 305 367 546 384 117 9 161 4 259 -26z m135 22 c-4 -8 -12 -15 -20 -15
-20 0 -17 18 4 23 9 3 18 5 19 6 1 0 0 -6 -3 -14z m219 -104 c-10 -2 -21 -8
-25 -15 -6 -8 -8 -8 -8 1 0 7 -6 10 -14 7 -17 -6 -13 -43 6 -56 8 -5 3 -7 -14
-5 -33 4 -68 34 -61 53 3 8 18 14 34 14 24 0 29 4 29 23 0 37 11 39 43 10 25
-25 26 -28 10 -32z m-63 17 c0 -12 -32 -1 -41 14 -8 14 -6 15 16 5 14 -7 25
-15 25 -19z m-949 -4 c6 -18 4 -20 -16 -17 -17 4 -21 10 -18 24 7 24 23 20 34
-7z m-36 -34 c3 -6 -1 -7 -9 -4 -18 7 -21 14 -7 14 6 0 13 -4 16 -10z m1110
-30 c13 -14 12 -18 -6 -33 -13 -12 -19 -13 -17 -5 1 7 -3 22 -9 34 -10 17 -9
21 2 21 8 0 22 -8 30 -17z m-1202 -10 c-3 -10 -13 -22 -23 -25 -10 -3 -17 -13
-15 -23 2 -9 4 -19 4 -22 1 -3 6 2 11 10 5 8 10 10 10 5 0 -17 -41 -47 -56
-41 -9 3 -14 -1 -14 -12 -1 -16 -1 -15 -11 1 -8 14 -5 25 16 53 14 18 32 34
40 34 8 0 19 9 25 20 14 25 20 26 13 0z m1131 -32 c-3 -4 2 -8 10 -8 8 0 17
-4 20 -9 4 -5 -3 -7 -14 -4 -12 3 -20 0 -20 -6 0 -7 5 -9 12 -5 6 4 8 3 5 -3
-4 -6 0 -14 9 -17 9 -4 14 -9 11 -13 -4 -3 -2 -15 4 -27 9 -19 8 -20 -3 -2 -7
11 -25 33 -39 50 -27 32 -29 53 -4 53 8 0 12 -4 9 -9z m124 -32 c12 -15 19
-32 16 -37 -3 -5 -1 -9 4 -9 14 0 66 -126 58 -139 -4 -6 -3 -11 2 -11 12 0 29
-62 37 -137 4 -40 3 -63 -3 -63 -6 0 -8 9 -5 20 4 15 0 20 -13 20 -13 0 -15
-3 -7 -8 9 -5 6 -12 -10 -21 -17 -11 -19 -11 -10 0 10 10 9 16 -4 31 -15 17
-15 18 -1 13 16 -6 17 13 3 98 -3 17 0 27 8 27 6 1 0 11 -15 23 -20 16 -25 26
-18 37 5 8 9 24 9 35 0 17 -2 17 -10 -4 -5 -14 -11 -33 -13 -44 -1 -10 -9 -23
-17 -29 -10 -7 -8 -8 10 -4 17 3 21 2 13 -6 -6 -6 -18 -8 -27 -4 -14 5 -15 9
-5 21 7 8 10 15 7 15 -3 0 -12 3 -20 6 -11 4 -13 -1 -10 -23 2 -18 -3 -11 -16
21 -11 28 -19 52 -17 54 2 2 7 -6 11 -17 7 -24 35 -28 35 -5 0 9 -5 12 -12 8
-10 -6 -10 -4 0 7 6 7 12 27 12 44 0 17 -6 37 -12 44 -9 10 -9 12 -1 7 18 -10
24 9 8 30 -11 14 -14 15 -15 5 0 -11 -4 -9 -14 5 -11 14 -11 21 -3 26 7 4 14
4 18 0 3 -4 15 -20 27 -36z m-1358 -66 c0 -5 -4 -10 -9 -10 -6 0 -9 -9 -8 -20
1 -11 4 -20 8 -20 3 0 5 -11 4 -25 -2 -15 2 -25 10 -25 7 0 16 -8 20 -17 6
-16 8 -15 21 7 9 14 13 18 10 9 -2 -10 -10 -35 -17 -58 -7 -22 -16 -38 -22
-34 -6 3 -7 2 -4 -4 4 -6 2 -37 -3 -69 -9 -52 -12 -111 -9 -179 1 -11 7 -43
14 -72 11 -44 11 -51 -1 -46 -8 3 -14 1 -14 -5 0 -5 9 -12 20 -15 11 -3 20
-13 19 -24 0 -12 -2 -14 -6 -4 -5 11 -7 11 -14 0 -7 -11 -9 -11 -9 -1 0 7 -4
11 -8 8 -4 -2 -9 9 -10 25 -1 16 2 29 8 29 5 0 10 5 10 11 0 5 -3 8 -7 6 -5
-3 -8 13 -9 36 -1 25 -7 45 -18 53 -12 8 -14 14 -6 19 7 4 10 18 7 31 -2 13 1
26 7 29 8 3 7 7 -1 11 -10 4 -10 10 0 25 10 16 9 21 -3 29 -13 8 -12 10 3 10
9 0 17 7 17 15 0 8 -4 15 -10 15 -5 0 -10 -4 -10 -10 0 -5 -5 -10 -11 -10 -8
0 -9 4 0 13 6 8 7 18 3 22 -4 5 -2 6 3 3 6 -3 16 0 23 8 8 9 9 14 2 14 -6 0
-18 6 -25 14 -12 12 -12 16 0 26 26 21 19 47 -12 45 -23 -1 -28 -6 -28 -27 1
-15 -3 -24 -7 -22 -4 3 -8 -3 -8 -12 0 -10 -3 -15 -6 -12 -7 8 21 115 46 171
19 43 40 62 40 37z m34 -28 c3 -5 -1 -9 -9 -9 -8 0 -12 4 -9 9 3 4 7 8 9 8 2
0 6 -4 9 -8z m-84 -208 c0 -8 -4 -14 -8 -14 -4 0 -8 9 -8 19 0 11 4 17 8 15 4
-3 8 -12 8 -20z m-27 -13 c3 -11 0 -27 -7 -36 -10 -14 -12 -10 -14 25 -3 42
11 49 21 11z m1444 -3 c-3 -7 -5 -2 -5 12 0 14 2 19 5 13 2 -7 2 -19 0 -25z
m10 -155 c-2 -27 -3 -5 -3 47 0 52 1 74 3 48 2 -27 2 -69 0 -95z m-1407 85 c0
-8 -27 -4 -37 6 -4 4 -1 11 7 16 13 8 29 -3 30 -22z m-47 -8 c3 -11 1 -23 -4
-26 -5 -3 -9 6 -9 20 0 31 6 34 13 6z m-3 -70 c0 -10 6 -21 13 -23 7 -4 6 -6
-4 -6 -14 -1 -16 -11 -13 -58 1 -32 5 -67 8 -78 2 -11 5 -24 5 -28 1 -5 5 -5
11 -2 6 3 7 -1 4 -10 -4 -9 1 -22 12 -31 11 -9 14 -13 7 -10 -6 4 -13 -2 -15
-11 -10 -41 -48 122 -53 225 -5 100 -5 105 10 78 8 -15 15 -36 15 -46z m1555
-46 c-4 -41 -11 -64 -21 -68 -20 -8 -28 18 -16 51 l10 28 2 -25 1 -25 10 24
c6 15 6 28 0 35 -6 7 -6 17 -1 26 6 8 10 26 11 40 l2 25 4 -24 c3 -14 2 -53
-2 -87z m-32 51 c-6 -17 -19 -19 -28 -5 -4 6 -1 9 7 8 7 -2 12 3 10 10 -1 8 2
11 7 7 6 -3 8 -12 4 -20z m-1474 -19 c0 -7 -2 -6 -6 2 -2 6 -8 10 -12 8 -4 -3
-8 1 -8 9 0 11 4 12 14 4 7 -6 13 -17 12 -23z m1431 -46 c0 -5 -6 -10 -14 -10
-8 0 -17 -6 -19 -12 -4 -8 -6 -7 -6 4 -1 9 7 19 17 21 9 3 18 5 20 6 1 0 2 -3
2 -9z m-40 -94 c-4 -4 -6 -14 -4 -21 3 -6 -2 -18 -11 -25 -18 -15 -19 -9 -3
42 7 26 14 34 19 26 5 -7 4 -17 -1 -22z m100 9 c-1 -11 -7 -33 -15 -50 -9 -17
-13 -21 -9 -8 2 12 0 24 -6 28 -14 9 -2 27 13 18 7 -3 4 3 -7 15 -18 20 -18
21 3 19 14 -1 21 -8 21 -22z m-1506 0 c-4 -8 -11 -12 -16 -9 -6 4 -5 10 3 15
19 12 19 11 13 -6z m26 -45 c0 -5 -5 -10 -11 -10 -5 0 -7 5 -4 10 3 6 8 10 11
10 2 0 4 -4 4 -10z m1362 -57 c-4 -24 -6 -25 -12 -8 -6 18 -7 18 -12 -3 -3
-11 -1 -23 6 -25 6 -2 3 -3 -6 -2 -10 2 -21 -8 -29 -26 -6 -17 -14 -28 -16
-26 -2 3 8 30 24 61 29 60 54 76 45 29z m-1292 13 c0 -2 -7 -7 -16 -10 -8 -3
-12 -2 -9 4 6 10 25 14 25 6z m-21 -33 c2 -1 -5 -1 -16 0 -11 0 -20 7 -20 14
0 10 4 10 16 1 9 -7 18 -13 20 -15z m1373 -48 c-22 -46 -36 -65 -49 -64 -17 1
-17 2 0 6 18 5 23 18 10 26 -5 2 -2 2 5 1 6 -2 12 -2 12 0 0 3 3 13 6 23 6 15
4 16 -7 6 -19 -19 -29 -16 -29 8 0 14 4 18 13 12 25 -16 36 -10 48 24 6 19 13
32 16 29 3 -3 -8 -34 -25 -71z m-1342 41 c0 -3 -4 -8 -10 -11 -5 -3 -10 -1
-10 4 0 6 5 11 10 11 6 0 10 -2 10 -4z m-70 -12 c0 -3 -7 -12 -15 -20 -8 -9
-15 -13 -15 -11 0 3 -2 12 -5 19 -4 9 2 14 15 15 11 1 20 -1 20 -3z m119 -96
c-13 -25 -17 -23 -13 8 2 20 0 23 -11 14 -12 -10 -14 -4 -12 28 l1 40 22 -36
c16 -27 20 -41 13 -54z m-109 47 c0 -8 -4 -15 -10 -15 -5 0 -7 7 -4 15 4 8 8
15 10 15 2 0 4 -7 4 -15z m20 -41 c0 -8 -19 -13 -24 -6 -3 5 1 9 9 9 8 0 15
-2 15 -3z m25 -21 c-27 -19 -38 -16 -17 5 9 11 21 17 26 14 5 -3 1 -11 -9 -19z
m145 -56 c19 -23 24 -33 11 -22 -13 11 -25 19 -27 18 -12 -8 -25 -1 -21 11 3
7 0 19 -6 25 -6 6 -7 11 -1 10 5 0 25 -19 44 -42z m1119 -12 c-18 -25 -37 -45
-43 -45 -6 0 -5 4 2 9 11 7 11 9 -2 14 -9 4 -16 12 -16 19 0 10 2 10 8 1 5 -8
18 -3 42 18 19 15 36 29 38 29 2 0 -11 -20 -29 -45z m-1245 -1 c5 -14 4 -15
-9 -4 -17 14 -19 20 -6 20 5 0 12 -7 15 -16z m69 -4 c3 -11 3 -20 1 -20 -2 0
-8 9 -14 20 -6 11 -7 20 -2 20 6 0 12 -9 15 -20z m1050 6 c3 -8 -1 -13 -11
-12 -9 0 -17 -6 -17 -14 0 -8 -7 -15 -15 -15 -8 -1 -14 -7 -12 -14 2 -8 -3
-11 -12 -8 -8 3 -20 0 -26 -8 -6 -7 -20 -15 -31 -18 -12 -3 -19 -4 -17 -2 4 4
132 103 134 104 1 1 4 -5 7 -13z m-1073 -10 c0 -3 -4 -8 -10 -11 -5 -3 -10 -1
-10 4 0 6 5 11 10 11 6 0 10 -2 10 -4z m1088 -52 c18 -8 37 -12 44 -9 7 4 -3
-8 -22 -25 -19 -17 -44 -36 -55 -41 -17 -9 -17 -7 3 10 23 20 32 68 10 55 -6
-4 -8 -3 -4 4 3 5 0 13 -6 15 -7 3 -10 6 -7 6 3 1 20 -6 37 -15z m-1051 -10
c-3 -3 -12 -4 -19 -1 -8 3 -5 6 6 6 11 1 17 -2 13 -5z m54 -11 c12 -16 12 -17
-2 -6 -9 7 -20 9 -24 5 -5 -4 -5 -1 -1 6 9 16 11 15 27 -5z m-17 -25 c-3 -4
-9 -8 -15 -8 -5 0 -9 4 -9 8 0 5 7 9 15 9 8 0 12 -4 9 -9z m862 -1 c8 3 14 0
14 -6 0 -6 -3 -10 -7 -10 -24 4 -35 -3 -29 -17 4 -10 2 -13 -6 -7 -19 11 -52
12 -65 1 -8 -6 -13 -6 -13 -1 0 12 84 53 88 42 2 -4 10 -5 18 -2z m-122 -52
c-4 -8 -11 -12 -16 -9 -6 4 -14 0 -19 -7 -11 -18 -12 -32 -1 -25 4 2 14 0 22
-6 12 -8 12 -9 -2 -4 -10 3 -20 0 -24 -5 -4 -7 6 -10 27 -9 19 1 39 1 44 0 6
-1 13 -2 18 -1 4 0 7 -3 7 -8 0 -8 -82 -41 -102 -41 -4 0 -8 8 -8 18 0 31 -24
72 -42 72 -10 0 -18 -5 -18 -11 0 -5 -5 -7 -12 -3 -8 5 -9 2 -5 -9 8 -20 -4
-29 -23 -16 -10 6 -11 9 -2 9 6 0 12 5 12 10 0 6 -9 10 -19 10 -11 0 -23 -4
-26 -10 -3 -5 -1 -10 6 -10 7 0 9 -3 6 -6 -4 -4 -14 -1 -24 7 -9 8 -14 9 -11
4 4 -6 3 -17 -3 -25 -6 -11 -9 -12 -9 -2 0 7 -4 11 -9 7 -5 -3 -12 -1 -15 3
-8 14 -127 2 -143 -14 -18 -17 -24 -18 -20 -2 1 7 -8 14 -20 16 -21 3 -42 32
-23 32 6 0 10 -4 10 -10 0 -5 5 -10 11 -10 5 0 8 4 5 8 -7 11 -3 12 149 16
114 3 246 23 263 40 11 12 21 6 16 -9z m176 11 c0 -2 -7 -7 -16 -10 -8 -3 -12
-2 -9 4 6 10 25 14 25 6z m25 -17 c-4 -5 -12 -9 -18 -8 -9 0 -8 2 1 6 6 2 9
10 6 15 -4 7 -2 8 5 4 6 -4 9 -12 6 -17z m-610 -9 c18 -8 17 -9 -7 -9 -16 -1
-28 4 -28 9 0 12 8 12 35 0z m432 3 c-4 -3 -1 -13 6 -22 11 -14 10 -14 -5 -2
-16 12 -16 31 -1 31 4 0 3 -3 0 -7z m133 -21 c-21 -7 -23 -6 -26 10 -2 14 1
15 17 5 11 -7 15 -13 9 -15z m-65 -32 c-3 -5 -12 -10 -18 -10 -7 0 -6 4 3 10
19 12 23 12 15 0z m-555 -3 c0 -2 -10 -12 -22 -23 -13 -10 -17 -12 -11 -4 9
12 7 15 -13 16 -13 1 -22 -2 -19 -6 3 -5 -4 -6 -15 -3 -38 10 -28 18 26 21 30
2 54 1 54 -1z m206 -18 c3 -6 1 -16 -5 -22 -8 -8 -11 -6 -11 7 0 9 -4 14 -10
11 -5 -3 -10 -1 -10 4 0 14 27 14 36 0z m-154 -29 c15 0 28 -4 28 -9 0 -5 -16
-5 -37 0 -21 5 -42 9 -46 9 -5 0 -5 5 -1 11 4 8 9 8 17 0 6 -6 24 -11 39 -11z
m213 10 c3 -6 -1 -7 -9 -4 -18 7 -21 14 -7 14 6 0 13 -4 16 -10z m-30 -20 c3
-5 -1 -10 -10 -10 -9 0 -13 5 -10 10 3 6 8 10 10 10 2 0 7 -4 10 -10z m-118
-6 c-3 -3 -12 -4 -19 -1 -8 3 -5 6 6 6 11 1 17 -2 13 -5z m77 -2 c3 -5 -1 -9
-9 -9 -8 0 -15 4 -15 9 0 4 4 8 9 8 6 0 12 -4 15 -8z m134 1 c-10 -2 -26 -2
-35 0 -10 3 -2 5 17 5 19 0 27 -2 18 -5z"/>
<path d="M11159 6598 c-5 -10 -14 -18 -20 -18 -6 0 -7 5 -3 12 4 7 3 8 -4 4
-9 -5 -8 -12 1 -27 6 -10 13 -15 15 -11 1 5 14 7 27 4 16 -3 25 0 25 8 0 7 -6
10 -13 7 -7 -3 -13 3 -13 14 0 12 4 15 12 8 7 -6 16 -4 24 6 11 13 8 15 -15
13 -15 -1 -31 -10 -36 -20z"/>
<path d="M11535 6600 c-3 -5 -1 -10 4 -10 6 0 11 5 11 10 0 6 -2 10 -4 10 -3
0 -8 -4 -11 -10z"/>
<path d="M11530 6564 c0 -8 5 -12 10 -9 6 3 10 10 10 16 0 5 -4 9 -10 9 -5 0
-10 -7 -10 -16z"/>
<path d="M11440 6545 c0 -7 30 -13 34 -7 3 4 -4 9 -15 9 -10 1 -19 0 -19 -2z"/>
<path d="M11303 6353 c-19 -7 -17 -112 1 -119 15 -6 16 -28 1 -41 -4 -4 -5 -2
0 6 6 10 2 12 -16 6 -24 -7 -24 -7 -4 10 19 16 19 16 -10 10 -60 -12 -118 -57
-148 -115 -25 -49 -28 -63 -25 -126 6 -121 66 -181 221 -220 107 -27 134 -49
127 -108 -6 -54 -68 -96 -142 -96 -51 0 -138 38 -172 75 l-24 26 -36 -44 c-20
-24 -36 -51 -36 -60 0 -40 141 -117 215 -117 l34 0 3 -67 3 -68 60 0 60 0 3
73 3 72 37 19 c109 56 154 189 101 299 -27 55 -71 84 -183 117 -110 34 -146
64 -146 124 0 61 32 93 102 99 74 6 113 -15 139 -74 23 -50 34 -53 90 -21 36
20 39 25 34 52 -9 50 -56 108 -110 135 -28 14 -53 30 -57 35 -4 6 -8 36 -8 68
l0 57 -52 -1 c-29 0 -59 -3 -65 -6z m107 -23 c0 -5 -6 -10 -12 -11 -10 0 -10
-2 0 -6 6 -2 11 -19 11 -36 -2 -28 -2 -29 -6 -7 -7 34 -32 60 -59 60 -20 0
-23 -6 -27 -47 l-3 -48 -2 53 -2 52 50 0 c28 0 50 -4 50 -10z m-20 -96 c0 -8
-5 -12 -10 -9 -6 4 -8 11 -5 16 9 14 15 11 15 -7z m-26 -10 c6 -15 4 -15 -11
-3 -10 7 -20 15 -22 16 -2 2 3 3 11 3 9 0 19 -7 22 -16z m-119 -30 c-11 -8
-19 -20 -17 -25 1 -6 -2 -8 -7 -5 -16 10 -60 -32 -54 -54 3 -12 -1 -22 -11
-26 -9 -3 -13 -10 -10 -15 3 -5 0 -9 -5 -9 -6 0 -11 7 -11 15 0 8 6 15 14 15
8 0 12 7 10 18 -5 21 22 54 67 81 40 24 53 27 24 5z m50 -15 c4 -6 14 -8 22
-5 8 3 11 1 8 -4 -3 -6 3 -10 13 -10 11 0 26 -7 33 -17 13 -14 12 -15 -6 -6
-11 6 -33 17 -50 24 -16 7 -34 15 -40 18 -5 2 -4 -3 3 -12 11 -13 10 -15 -8
-10 -16 4 -18 8 -9 19 14 17 25 18 34 3z m108 -44 c-7 -21 -12 -19 -10 4 0 11
5 18 9 15 4 -3 5 -11 1 -19z m42 15 c-3 -5 -10 -10 -16 -10 -5 0 -9 5 -9 10 0
6 7 10 16 10 8 0 12 -4 9 -10z m105 -20 c28 -40 31 -61 11 -86 -18 -23 -68
-54 -57 -35 4 6 3 11 -2 11 -6 0 -15 13 -20 30 -6 16 -25 38 -43 49 l-31 19
22 12 c20 10 22 10 17 -3 -6 -15 43 -67 64 -67 5 0 7 -5 3 -12 -5 -7 -3 -8 5
-3 8 4 9 11 4 16 -5 5 -7 24 -4 42 l5 32 6 -35 c6 -35 6 -35 12 -7 3 18 0 33
-8 42 -14 13 -18 25 -10 25 3 0 14 -13 26 -30z m-220 -1 c-37 -11 -50 -10 -50
2 0 5 5 7 10 4 6 -3 10 -2 10 3 0 5 12 7 28 4 l27 -6 -25 -7z m-100 -60 c0 -4
-4 -11 -10 -14 -16 -10 -11 -68 9 -106 l19 -36 -23 5 c-23 4 -24 8 -23 81 0
59 4 78 14 78 8 0 14 -4 14 -8z m-103 -41 c-3 -8 -6 -5 -6 6 -1 11 2 17 5 13
3 -3 4 -12 1 -19z m33 12 c0 -5 -5 -10 -11 -10 -5 0 -7 5 -4 10 3 6 8 10 11
10 2 0 4 -4 4 -10z m30 -25 c0 -8 -2 -15 -4 -15 -2 0 -6 7 -10 15 -3 8 -1 15
4 15 6 0 10 -7 10 -15z m-7 -148 c6 3 7 1 3 -5 -4 -7 6 -20 26 -32 34 -21 32
-28 -4 -9 -28 15 -77 71 -78 89 0 8 10 0 21 -17 12 -18 26 -30 32 -26z m257
-28 c0 -5 -10 -4 -22 2 -15 8 -23 8 -26 1 -1 -5 -12 -8 -22 -5 -12 3 -17 10
-13 17 4 6 -1 5 -10 -3 -10 -8 -20 -11 -24 -7 -3 3 -17 -1 -29 -9 -14 -9 -25
-11 -29 -5 -3 6 -1 10 4 10 6 0 11 11 11 23 0 13 2 26 5 29 8 7 155 -43 155
-53z m-116 -18 c10 -16 -21 -32 -49 -25 l-26 6 23 13 c28 16 45 18 52 6z m222
-52 c21 -42 22 -154 1 -194 -8 -17 -28 -41 -44 -55 l-28 -25 24 28 c20 22 25
38 24 80 -1 35 2 46 7 32 5 -11 6 -31 3 -45 -3 -14 -3 -22 1 -19 11 10 16 78
6 84 -5 3 -6 13 -3 23 6 15 5 16 -13 2 -17 -14 -18 -14 -6 1 7 9 10 24 6 33
-3 9 -1 16 5 16 6 0 11 -5 11 -12 0 -6 2 -9 5 -7 8 8 -7 49 -16 43 -5 -3 -9 6
-9 20 0 34 6 33 26 -5z m-161 1 c3 -6 -1 -7 -9 -4 -18 7 -21 14 -7 14 6 0 13
-4 16 -10z m-275 -145 c-11 -13 -10 -14 4 -9 20 8 21 -10 1 -29 -8 -8 -11 -17
-8 -21 4 -3 2 -6 -3 -6 -6 0 -15 5 -22 12 -13 13 -16 1 -6 -26 8 -21 23 -20
41 2 13 15 13 15 4 -5 -16 -31 -14 -35 12 -29 12 3 16 3 9 0 -6 -3 -10 -9 -7
-14 3 -4 -4 -6 -15 -3 -21 6 -60 48 -60 66 0 12 48 77 57 77 3 0 0 -7 -7 -15z
m49 -29 c10 -12 8 -13 -8 -9 -12 3 -18 9 -15 14 7 12 10 11 23 -5z m65 -47
c-18 -7 -17 -10 5 -13 5 0 12 -4 16 -8 4 -3 -1 -5 -12 -3 -10 2 -21 4 -25 4
-5 1 -8 10 -8 20 0 15 5 18 22 13 21 -5 21 -6 2 -13z m101 -9 c3 -5 13 -10 21
-10 9 0 12 5 8 12 -4 7 -3 8 5 4 22 -14 -1 -27 -44 -24 -24 2 -41 6 -39 10 2
3 -4 9 -13 11 -10 3 -1 5 19 6 20 0 40 -3 43 -9z m-122 -50 c7 0 4 -5 -6 -11
-24 -14 -28 -9 -20 21 6 19 8 21 11 8 2 -10 9 -18 15 -18z m247 20 c0 -5 -2
-10 -4 -10 -3 0 -8 5 -11 10 -3 6 -1 10 4 10 6 0 11 -4 11 -10z m16 -19 c-6
-9 -46 -22 -46 -15 0 3 10 9 23 14 29 11 29 11 23 1z m-149 -23 c-3 -8 -6 -5
-6 6 -1 11 2 17 5 13 3 -3 4 -12 1 -19z m83 -90 l0 -58 -44 0 -44 0 -4 60 -3
60 48 -1 47 -2 0 -59z"/>
<path d="M11290 5881 c0 -9 30 -24 36 -18 2 1 -6 8 -16 15 -11 7 -20 8 -20 3z"/>
<path d="M11300 5810 c-9 -6 -10 -10 -3 -10 6 0 15 5 18 10 8 12 4 12 -15 0z"/>
<path d="M11342 5410 c-15 -25 -15 -33 0 -24 7 5 9 2 6 -7 -6 -17 10 -43 30
-46 7 -2 12 7 12 20 0 16 -3 18 -9 8 -5 -7 -14 -10 -21 -6 -9 6 -9 10 1 17 11
7 11 11 2 15 -18 7 -16 23 1 23 8 0 17 -8 19 -17 4 -14 5 -13 6 3 1 17 -15 34
-32 34 -1 0 -8 -9 -15 -20z"/>
<path d="M10683 6285 c-3 -9 -3 -19 1 -22 3 -4 6 1 6 10 0 8 6 18 13 20 9 4 9
6 -1 6 -7 1 -15 -6 -19 -14z"/>
<path d="M12010 6198 c0 -12 3 -17 8 -12 4 5 11 12 15 15 5 3 2 9 -7 12 -12 5
-16 0 -16 -15z"/>
<path d="M12006 6125 c-3 -8 -1 -15 4 -15 13 0 22 18 11 24 -5 3 -11 -1 -15
-9z"/>
<path d="M12060 6111 c0 -6 4 -13 10 -16 6 -3 7 1 4 9 -7 18 -14 21 -14 7z"/>
<path d="M10617 6133 c4 -10 2 -14 -4 -10 -6 4 -10 -4 -10 -21 0 -26 0 -26 10
-4 5 12 14 22 18 22 5 0 6 7 3 15 -4 8 -10 15 -15 15 -4 0 -5 -7 -2 -17z"/>
<path d="M10624 6088 c-4 -6 -3 -8 4 -4 6 3 13 2 17 -4 4 -6 11 -8 16 -4 5 3
7 10 4 15 -8 13 -32 11 -41 -3z"/>
<path d="M10630 6019 c0 -5 5 -7 10 -4 6 3 10 8 10 11 0 2 -4 4 -10 4 -5 0
-10 -5 -10 -11z"/>
<path d="M11508 5163 c7 -3 16 -2 19 1 4 3 -2 6 -13 5 -11 0 -14 -3 -6 -6z"/>
<path d="M11178 5143 c-10 -2 -18 -8 -18 -13 0 -18 15 -17 34 1 19 19 17 21
-16 12z"/>
<path d="M11585 5110 c-3 -5 -1 -10 4 -10 6 0 11 5 11 10 0 6 -2 10 -4 10 -3
0 -8 -4 -11 -10z"/>
<path d="M6532 5960 c-238 -30 -453 -157 -588 -347 -57 -78 -98 -170 -132
-291 -25 -90 -27 -111 -26 -277 0 -165 3 -187 27 -266 69 -227 177 -375 351
-483 307 -192 803 -160 1079 69 62 52 162 166 162 186 0 4 -57 49 -128 98
l-127 91 -58 -53 c-113 -104 -196 -149 -320 -173 -100 -19 -175 -18 -265 6
-240 61 -368 272 -354 585 13 316 186 516 457 532 173 11 318 -41 443 -157 41
-39 78 -70 81 -70 4 0 67 41 141 91 l135 90 -29 43 c-61 89 -199 199 -317 253
-137 62 -365 94 -532 73z"/>
<path d="M2401 5070 l0 -860 175 0 174 0 0 568 0 567 71 -120 c39 -66 143
-248 231 -405 190 -337 192 -340 223 -340 20 0 35 20 93 123 116 205 358 639
385 692 l26 50 1 -567 0 -568 175 0 175 0 0 860 0 860 -197 0 -198 0 -69 -133
c-38 -72 -131 -249 -206 -392 -76 -143 -149 -282 -163 -310 l-25 -50 -11 27
c-5 14 -76 149 -157 300 -81 150 -181 337 -223 415 l-76 143 -202 0 -203 0 1
-860z"/>
<path d="M7530 5070 l0 -860 180 0 180 0 0 413 c0 461 2 479 66 541 91 89 273
83 368 -10 61 -61 61 -59 64 -521 l3 -423 170 0 169 0 0 458 c0 506 -4 545
-61 653 -62 116 -175 185 -341 210 -150 22 -292 -17 -388 -107 l-50 -47 0 277
0 276 -180 0 -180 0 0 -860z"/>
<path d="M12500 5675 l0 -65 106 0 106 0 -33 -42 c-65 -84 -386 -395 -489
-475 -401 -310 -804 -502 -1240 -592 -132 -27 -132 -27 -124 -65 11 -53 23
-76 39 -76 35 0 267 54 393 92 294 88 597 238 871 433 193 137 507 416 497
442 -3 8 -1 11 4 8 10 -6 51 36 121 125 74 95 73 95 79 -38 l5 -117 58 0 c31
0 57 3 57 8 0 4 0 102 0 217 l0 210 -225 0 -225 0 0 -65z m439 18 c-2 -24 -2
-25 -6 -6 -4 23 -6 23 -179 22 -129 0 -174 -3 -174 -12 0 -9 -2 -9 -8 0 -4 6
-21 13 -37 16 -17 2 68 5 188 6 l217 1 -1 -27z m-398 -43 c6 0 7 -4 4 -10 -3
-5 3 -10 14 -10 14 0 21 6 21 19 0 23 16 36 25 21 4 -7 14 -3 26 11 10 12 19
17 19 10 0 -7 7 -19 15 -27 8 -9 15 -11 15 -6 0 5 7 9 15 9 23 0 18 -14 -7
-21 -19 -5 -21 -8 -8 -16 10 -7 -13 -10 -77 -10 -51 0 -93 4 -93 9 0 5 3 24 7
42 8 33 8 33 11 7 2 -16 8 -28 13 -28z m179 35 c0 -2 -9 -3 -19 -2 -11 0 -18
5 -15 9 4 6 34 0 34 -7z m-167 -10 c-3 -9 -8 -14 -10 -11 -3 3 -2 9 2 15 9 16
15 13 8 -4z m282 6 c3 -5 1 -12 -5 -16 -5 -3 -10 1 -10 9 0 18 6 21 15 7z
m102 -58 c-3 -10 -5 -4 -5 12 0 17 2 24 5 18 2 -7 2 -21 0 -30z m-47 -13 c0
-5 -5 -10 -11 -10 -5 0 -7 5 -4 10 3 6 8 10 11 10 2 0 4 -4 4 -10z m-101 -34
c0 -7 -2 -6 -6 2 -8 21 -22 13 -25 -15 -3 -22 -5 -24 -15 -11 -17 20 15 62 34
46 7 -6 13 -16 12 -22z m57 9 c5 -11 10 -13 19 -5 8 7 16 7 19 2 11 -18 -28
-24 -41 -6 -11 15 -15 15 -30 3 -16 -13 -17 -12 -4 4 17 21 30 22 37 2z m74 5
c0 -5 -5 -10 -11 -10 -5 0 -7 5 -4 10 3 6 8 10 11 10 2 0 4 -4 4 -10z m20 -65
c0 -41 -3 -75 -7 -75 -5 0 -7 21 -6 47 1 27 2 60 2 76 1 15 3 27 6 27 3 0 5
-34 5 -75z m-52 7 c2 -7 -1 -12 -8 -12 -6 0 -8 5 -5 10 3 6 1 10 -4 10 -6 0
-11 -5 -11 -12 0 -6 -3 -9 -6 -5 -9 9 6 29 19 24 6 -2 13 -9 15 -15z m-119
-20 c8 7 1 -6 -17 -29 -19 -24 -38 -46 -45 -50 -6 -3 2 10 17 30 22 29 25 37
12 37 -9 0 -16 5 -16 10 0 6 -7 10 -16 10 -8 0 -12 5 -9 10 4 6 16 3 32 -10
21 -17 29 -18 42 -8z m-132 -26 c-15 -22 -14 -25 7 -45 18 -17 25 -18 36 -8 8
8 11 8 6 0 -3 -6 0 -14 6 -16 8 -3 6 -6 -5 -6 -10 -1 -16 -5 -13 -10 3 -5 0
-14 -8 -20 -10 -9 -15 -8 -19 3 -4 9 -2 18 4 21 5 4 -3 18 -19 32 l-29 25 21
24 c27 30 33 31 13 0z m226 -19 c-3 -5 3 -14 13 -21 13 -10 14 -15 4 -21 -9
-5 -11 -4 -6 3 4 7 3 12 -3 12 -6 0 -10 -20 -9 -45 0 -25 -2 -49 -6 -52 -3 -4
-6 9 -6 28 0 19 -3 59 -6 89 -6 51 -5 53 9 35 8 -11 13 -24 10 -28z m22 33 c3
-5 1 -10 -4 -10 -6 0 -11 5 -11 10 0 6 2 10 4 10 3 0 8 -4 11 -10z m-277 -90
c-1 -17 -3 -28 -6 -25 -9 9 -11 65 -2 60 5 -3 8 -19 8 -35z m332 -40 l0 -50
-52 1 c-29 1 -41 4 -25 6 15 2 27 9 27 14 0 6 -4 8 -9 5 -5 -4 -7 4 -3 16 4
16 7 18 10 8 14 -42 42 -26 42 23 0 15 2 27 5 27 3 0 5 -22 5 -50z m-380 6
c-5 -5 -19 -10 -30 -11 -20 -2 -20 -1 2 22 16 17 24 20 29 11 5 -7 4 -17 -1
-22z m42 -46 c-2 -16 -13 -37 -23 -46 -18 -16 -19 -16 -13 -1 3 9 11 17 16 17
5 0 8 6 5 13 -2 6 0 20 4 29 6 10 5 19 -1 23 -5 3 -10 11 -10 18 0 6 6 3 13
-7 7 -10 11 -31 9 -46z m-119 -1 c-7 -7 -8 -20 -3 -33 7 -20 5 -22 -23 -19
-18 2 -26 0 -19 -3 6 -3 12 -11 12 -17 0 -8 -3 -8 -12 1 -16 16 -38 -3 -38
-33 0 -26 -35 -62 -45 -45 -3 5 -11 8 -16 4 -5 -3 -7 -10 -3 -15 3 -5 2 -9 -3
-8 -22 4 -25 -2 -7 -16 20 -15 19 -16 -39 -20 -33 -2 -35 -1 -20 10 10 7 22
11 27 8 5 -4 6 -1 2 5 -8 13 73 83 88 75 6 -3 8 -2 3 2 -6 8 89 115 102 115 3
0 0 -5 -6 -11z m57 -54 c-7 -9 -15 -13 -19 -10 -3 3 1 10 9 15 21 14 24 12 10
-5z m10 -19 c0 -2 -8 -10 -17 -17 -16 -13 -17 -12 -4 4 13 16 21 21 21 13z
m-76 -71 c-20 -30 -23 -31 -21 -6 0 11 4 18 8 15 4 -2 10 0 14 6 3 5 8 10 11
10 2 0 -3 -11 -12 -25z m-38 -20 c-3 -18 -127 -129 -231 -205 -18 -14 -19 -14
-7 2 10 13 10 17 0 22 -7 3 -2 4 11 2 17 -3 25 1 28 15 3 10 9 16 14 13 5 -3
9 2 9 11 0 9 5 13 10 10 16 -10 40 14 33 33 -4 13 -3 14 5 3 7 -10 11 -10 17
-1 4 7 2 16 -4 20 -18 11 11 30 37 25 12 -2 22 0 22 6 0 5 7 9 16 9 8 0 12 5
9 10 -4 6 -1 9 6 8 7 -2 14 3 15 10 2 19 4 22 8 22 2 0 3 -7 2 -15z m-204 -72
c-10 -4 -8 -9 5 -20 17 -13 17 -14 -2 -4 -24 11 -54 -6 -48 -29 4 -12 3 -12
-5 -2 -7 11 -17 6 -46 -23 -20 -20 -34 -40 -32 -44 3 -5 -7 -6 -22 -4 -15 3
-23 1 -17 -4 14 -11 17 -33 5 -33 -21 0 -26 -2 -44 -18 -14 -13 -20 -14 -23
-5 -3 10 -10 10 -26 2 -21 -10 -21 -10 -3 5 11 9 28 14 38 10 12 -3 16 -1 13
8 -3 7 21 32 55 58 33 25 66 50 73 55 50 42 82 63 87 58 3 -3 -1 -8 -8 -10z
m18 -53 c0 -4 -6 -10 -13 -13 -7 -3 -13 3 -13 13 0 10 6 16 13 13 7 -3 13 -9
13 -13z m-73 -75 c0 -8 -6 -15 -13 -15 -8 0 -11 6 -8 15 4 8 9 15 13 15 4 0 8
-7 8 -15z m-7 -29 c0 -2 -8 -10 -17 -17 -16 -13 -17 -12 -4 4 13 16 21 21 21
13z m-194 -54 c-10 -2 -22 0 -28 6 -6 6 0 7 19 4 21 -5 23 -7 9 -10z m65 -7
c5 4 5 -3 1 -15 -4 -12 -11 -21 -15 -21 -4 1 -11 1 -16 1 -5 0 -4 11 2 25 7
13 14 20 15 15 2 -6 8 -8 13 -5z m-106 -5 c3 -6 -1 -7 -9 -4 -16 6 -23 -10 -8
-19 4 -2 2 -3 -3 -2 -14 3 -56 -31 -48 -39 4 -3 -1 -6 -10 -6 -31 0 -18 35 21
58 42 25 48 26 57 12z m145 6 c0 -2 -7 -9 -15 -16 -13 -11 -14 -10 -9 4 5 14
24 23 24 12z m-250 -81 c0 -7 -8 -16 -17 -20 -15 -5 -16 -4 -5 6 6 7 12 18 12
23 0 6 -5 5 -12 -2 -7 -7 -17 -12 -22 -12 -6 0 -2 7 8 15 21 16 36 12 36 -10z
m140 5 c0 -3 -13 -14 -30 -23 -29 -17 -29 -17 -23 0 4 10 10 21 15 24 12 8 38
7 38 -1z m-213 -24 c-18 -14 -18 -15 0 -25 12 -7 13 -10 4 -11 -11 0 -11 -3
-1 -15 7 -8 16 -12 21 -9 5 3 9 0 9 -6 0 -6 5 -8 10 -5 6 3 10 4 10 1 0 -9
-98 -55 -104 -49 -3 4 -6 15 -6 25 0 12 -4 16 -12 12 -7 -4 -8 -3 -4 5 10 16
26 4 26 -20 0 -17 3 -18 20 -9 11 6 18 15 15 21 -4 5 -11 7 -16 4 -10 -7 -7
31 4 41 12 12 8 26 -5 22 -7 -3 -13 -11 -13 -19 0 -8 -12 -14 -27 -16 -16 -1
-28 3 -28 8 0 6 4 8 9 5 5 -4 11 -2 13 3 3 8 77 50 88 50 3 0 -3 -6 -13 -13z
m120 8 c-3 -3 -12 -4 -19 -1 -8 3 -5 6 6 6 11 1 17 -2 13 -5z m-10 -50 c-3 -3
-12 -4 -19 -1 -8 3 -5 6 6 6 11 1 17 -2 13 -5z m-250 -32 c-10 -11 -15 -29
-12 -51 5 -37 15 -55 15 -27 0 13 5 16 20 11 11 -4 20 -2 20 4 0 6 -5 11 -11
11 -5 0 -7 5 -4 11 5 6 12 4 20 -8 12 -16 10 -20 -12 -32 -14 -7 -31 -14 -37
-16 -6 -1 -28 -10 -50 -19 -21 -9 -40 -15 -42 -13 -2 2 14 11 36 21 44 19 51
39 18 57 -18 9 -20 9 -15 -4 4 -10 0 -14 -11 -12 -9 2 -20 4 -24 4 -14 2 -8
29 7 35 8 3 15 2 15 -3 0 -13 29 -9 34 5 3 8 -1 11 -12 8 -9 -3 -1 4 18 15 44
25 47 26 27 3z m77 -48 c3 -8 2 -12 -4 -9 -6 3 -10 10 -10 16 0 14 7 11 14 -7z
m-204 -14 c-13 -11 -30 -20 -39 -20 -10 0 -4 8 14 19 40 26 54 26 25 1z m-61
-29 c10 -7 7 -9 -12 -8 -14 1 -23 5 -20 10 6 9 15 9 32 -2z m-57 -18 c-6 -2
-9 -10 -5 -15 4 -7 -2 -9 -15 -6 -12 4 -24 3 -27 -1 -2 -4 -21 -8 -42 -9 -37
0 -37 0 17 18 49 17 107 27 72 13z m38 -53 c-6 -12 -14 -19 -17 -16 -4 3 0 18
8 32 7 14 15 21 17 15 2 -5 -2 -20 -8 -31z m-170 -20 c-1 -12 -3 -11 -11 3
-12 20 -18 21 -54 7 -23 -9 -25 -13 -15 -25 11 -13 10 -14 -4 -9 -9 3 -16 10
-16 16 0 5 -4 6 -10 3 -17 -10 -11 -33 8 -31 9 0 16 -4 15 -11 -1 -6 4 -14 12
-17 9 -3 15 0 15 8 0 14 36 26 58 18 7 -2 12 -9 12 -14 0 -6 -3 -8 -7 -5 -3 4
-11 3 -17 -2 -6 -6 -23 -11 -36 -13 -14 -2 -29 -6 -35 -10 -5 -3 -32 -9 -60
-12 -48 -5 -48 -5 -13 5 20 6 44 19 53 29 17 19 16 19 -19 16 -41 -3 -44 1
-18 21 12 11 9 10 -10 -1 -33 -20 -48 -20 -48 -3 0 9 22 19 57 26 31 7 72 19
92 26 38 13 51 6 51 -25z m236 25 c-19 -14 -36 -12 -36 6 0 5 12 9 28 9 26 -1
26 -1 8 -15z m-189 -15 c-1 -11 -5 -20 -9 -20 -10 0 -10 4 -2 24 8 22 13 20
11 -4z m29 5 c-4 -24 -16 -30 -16 -7 0 12 4 22 9 22 5 0 8 -7 7 -15z m-106
-20 c-7 -8 -17 -15 -23 -15 -6 0 -2 7 9 15 25 19 30 19 14 0z m170 4 c0 -5 -4
-7 -10 -4 -5 3 -10 1 -10 -4 0 -6 -5 -11 -11 -11 -8 0 -8 5 1 15 14 17 30 20
30 4z m-350 -23 c0 -2 -7 -7 -16 -10 -8 -3 -12 -2 -9 4 6 10 25 14 25 6z m271
-11 c-18 -8 -36 -15 -40 -15 -13 1 45 29 59 29 8 0 0 -6 -19 -14z m-421 -41
c0 -8 -6 -14 -12 -14 -10 0 -10 -2 0 -8 7 -5 10 -16 6 -25 -9 -23 -20 -13 -28
25 -4 20 -2 34 6 39 15 10 28 2 28 -17z m25 -54 c3 -5 -1 -10 -10 -10 -9 0
-13 5 -10 10 3 6 8 10 10 10 2 0 7 -4 10 -10z"/>
<path d="M12617 5655 c-16 -11 -16 -13 -1 -19 8 -3 22 -2 30 2 13 7 13 10 2
19 -10 8 -18 8 -31 -2z"/>
<path d="M12355 5200 c-3 -5 1 -10 10 -10 9 0 13 5 10 10 -3 6 -8 10 -10 10
-2 0 -7 -4 -10 -10z"/>
<path d="M12346 5101 c-12 -5 -15 -10 -9 -14 6 -4 16 0 23 8 14 17 13 17 -14
6z"/>
<path d="M12041 4947 c-8 -10 -7 -14 4 -14 8 0 15 6 15 14 0 7 -2 13 -4 13 -2
0 -9 -6 -15 -13z"/>
<path d="M11880 4850 c-8 -5 -12 -12 -9 -15 4 -3 12 1 19 10 14 17 11 19 -10
5z"/>
<path d="M11745 4711 c-3 -5 -1 -12 5 -16 5 -3 10 1 10 9 0 18 -6 21 -15 7z"/>
<path d="M4870 5531 c-367 -52 -592 -344 -567 -735 12 -186 76 -336 191 -450
79 -79 153 -122 266 -157 106 -33 318 -33 435 0 122 34 209 84 296 171 128
127 185 260 196 461 7 131 -12 229 -67 344 -111 229 -312 354 -595 368 -55 3
-125 2 -155 -2z m206 -316 c111 -33 184 -106 224 -226 19 -54 21 -80 18 -166
-4 -89 -9 -110 -37 -167 -64 -130 -160 -182 -320 -174 -96 5 -143 24 -200 80
-131 128 -124 461 12 584 81 74 198 100 303 69z"/>
<path d="M9399 5530 c-195 -22 -359 -126 -444 -282 -15 -27 -25 -51 -23 -53
15 -13 272 -124 279 -119 5 3 9 12 9 20 0 25 74 97 125 120 55 26 168 33 236
14 88 -25 159 -105 167 -189 l5 -51 -190 0 c-128 0 -220 -5 -284 -16 -235 -40
-369 -163 -385 -354 -14 -164 67 -319 203 -388 112 -57 299 -71 424 -32 72 22
176 85 209 127 l20 26 0 -72 0 -71 165 2 166 3 -1 451 c0 489 -3 517 -57 616
-34 62 -125 148 -192 182 -109 56 -282 82 -432 66z m351 -812 c0 -169 -129
-278 -315 -266 -84 6 -128 27 -162 78 -31 45 -31 115 0 160 53 79 115 98 325
99 l152 1 0 -72z"/>
<path d="M12430 4570 l0 -440 -100 0 -100 0 0 240 0 240 -245 0 -246 0 1 -237
1 -238 -90 -3 -90 -3 -3 98 -3 98 -230 0 -230 0 -3 -97 -3 -98 -128 0 -128 0
-7 -41 c-4 -22 -4 -44 -1 -50 4 -5 444 -9 1141 -9 l1135 0 -3 48 -3 47 -77 3
-78 3 0 439 0 440 -255 0 -255 0 0 -440z m494 122 c-1 -203 -4 -276 -14 -282
-9 -5 -8 -9 3 -13 12 -4 14 -30 11 -141 l-4 -136 80 0 80 0 0 -35 0 -35 -130
0 -129 0 -15 28 c-12 24 -19 27 -57 25 -120 -7 -213 -2 -225 10 -8 8 310 9
331 1 13 -5 13 -9 3 -21 -10 -13 -13 -13 -18 3 -6 15 -8 14 -12 -8 -4 -21 -1
-25 18 -25 17 0 23 7 28 30 6 29 -8 52 -25 41 -4 -2 -8 81 -9 186 0 150 2 190
12 188 7 -2 16 -7 20 -13 4 -5 11 -6 15 -1 4 4 1 13 -7 19 -19 15 -14 50 11
73 10 9 19 22 19 27 0 6 -7 2 -16 -9 -15 -19 -15 -18 -11 3 3 13 2 25 -2 28
-11 6 -1 64 12 72 6 4 8 -2 5 -15 -4 -12 -2 -22 4 -22 14 0 5 45 -9 46 -23 2
-24 4 -16 17 4 6 6 19 5 29 -2 9 2 19 8 23 5 3 10 11 10 16 0 6 -5 7 -11 3 -7
-4 -10 -1 -7 7 3 8 1 22 -4 32 -13 26 -4 31 18 10 17 -17 17 -17 12 5 -3 12
-3 22 0 22 4 0 6 15 5 32 -2 48 -2 48 -14 48 -5 0 -7 -6 -3 -12 4 -7 -1 -5
-11 4 -10 9 -15 23 -11 33 5 15 8 15 29 -1 l23 -18 -2 -274z m-364 289 c0 -5
-11 -8 -25 -7 -38 4 -43 16 -7 16 18 0 32 -4 32 -9z m41 2 c-19 -4 -21 -7 -10
-15 12 -8 12 -9 0 -6 -28 8 -24 28 6 27 26 -2 26 -2 4 -6z m87 0 c-10 -2 -18
-8 -18 -12 0 -4 -6 -8 -14 -8 -8 0 -12 6 -9 14 3 7 17 12 32 12 17 -1 20 -3 9
-6z m136 -4 c-2 -4 3 -15 12 -23 14 -15 14 -16 0 -16 -9 0 -16 7 -16 16 0 8
-4 12 -10 9 -5 -3 -10 -2 -10 3 0 5 -18 8 -40 7 -22 -1 -43 2 -46 7 -3 5 20 8
55 7 33 -1 58 -6 55 -10z m34 -14 c-3 -3 -9 2 -12 12 -6 14 -5 15 5 6 7 -7 10
-15 7 -18z m-231 -10 c0 -8 -4 -12 -9 -9 -4 3 -8 0 -8 -7 0 -7 -3 -9 -6 -6 -4
4 -1 13 6 22 15 19 17 19 17 0z m-79 -50 c-3 -3 -9 2 -12 12 -6 14 -5 15 5 6
7 -7 10 -15 7 -18z m349 3 c-3 -8 -6 -5 -6 6 -1 11 2 17 5 13 3 -3 4 -12 1
-19z m-135 -5 c-40 -2 -103 -2 -140 0 -37 2 -4 3 73 3 77 0 107 -2 67 -3z
m-305 -25 c-3 -8 -6 -5 -6 6 -1 11 2 17 5 13 3 -3 4 -12 1 -19z m371 -365 l-3
-378 -140 0 -140 0 -3 365 c-1 201 0 371 3 377 3 10 41 13 145 13 l140 0 -2
-377z m26 352 c-4 -16 -2 -25 6 -25 6 0 8 -5 4 -12 -4 -7 -9 -23 -10 -36 -5
-45 -11 -33 -13 24 -1 52 3 74 15 74 2 0 2 -11 -2 -25z m-324 -357 c-1 -205
-4 -368 -8 -361 -4 7 -8 53 -7 102 0 77 -2 88 -15 78 -12 -10 -12 -8 1 13 17
28 23 80 9 80 -5 0 -12 -4 -15 -10 -3 -5 -12 -10 -18 -9 -9 0 -8 2 1 6 6 2 10
9 6 14 -3 5 -2 9 3 8 23 -4 29 4 29 36 0 35 -12 47 -22 21 -3 -8 -13 -12 -25
-9 -21 6 -25 18 -9 28 6 3 10 1 10 -4 0 -6 5 -11 11 -11 5 0 7 5 3 12 -4 6 -3
8 2 5 6 -3 16 -2 24 3 12 7 12 11 -1 26 -9 11 -9 15 -1 10 19 -12 14 21 -5 34
-17 11 -17 11 1 6 16 -6 18 -2 12 31 -3 21 -7 44 -8 51 -1 7 -7 11 -13 8 -6
-2 -12 2 -12 9 0 7 9 10 21 8 17 -4 18 -3 6 6 -10 7 -11 11 -2 11 8 0 12 21
12 71 0 58 -3 70 -15 66 -8 -4 -17 -1 -21 5 -4 6 -3 8 3 5 6 -4 16 0 23 8 7 8
14 15 16 15 2 0 4 -168 4 -372z m-53 296 c-3 -3 -12 -4 -19 -1 -8 3 -5 6 6 6
11 1 17 -2 13 -5z m-20 -34 c1 -11 -2 -20 -8 -20 -5 0 -9 9 -9 20 0 11 4 20 8
20 4 0 8 -9 9 -20z m395 -61 c-1 -29 0 -30 14 -13 14 18 15 18 6 -1 -5 -11 -7
-26 -5 -32 3 -7 0 -13 -5 -13 -6 0 -12 -10 -14 -22 -2 -13 -5 10 -6 51 -1 41
1 71 5 68 3 -4 6 -21 5 -38z m-398 15 c3 -8 2 -12 -4 -9 -6 3 -10 10 -10 16 0
14 7 11 14 -7z m38 -86 c-7 -7 -12 -8 -12 -2 0 14 12 26 19 19 2 -3 -1 -11 -7
-17z m3 -28 c3 -5 1 -10 -4 -10 -6 0 -11 5 -11 10 0 6 2 10 4 10 3 0 8 -4 11
-10z m-350 -21 c-4 -6 -21 -9 -38 -7 -27 2 -32 0 -30 -17 1 -11 0 -14 -3 -7
-3 6 -10 10 -15 6 -5 -3 -8 0 -7 8 2 10 -23 14 -112 16 -193 4 -185 9 18 10
134 2 191 -1 187 -9z m40 1 c-3 -5 -10 -10 -16 -10 -5 0 -9 5 -9 10 0 6 7 10
16 10 8 0 12 -4 9 -10z m662 -22 c-3 -7 -5 -2 -5 12 0 14 2 19 5 13 2 -7 2
-19 0 -25z m-639 -34 c0 -31 -1 -54 -5 -51 -3 3 -5 24 -5 47 1 29 -3 38 -11
33 -7 -4 -6 0 2 10 7 9 14 17 15 17 1 0 3 -25 4 -56z m-168 5 c0 -10 -4 -19
-9 -19 -5 0 -18 -3 -28 -6 -16 -5 -16 -4 1 10 11 9 14 16 8 16 -7 0 -12 4 -12
10 0 5 7 6 17 3 12 -5 14 -3 8 7 -5 9 -4 11 3 6 7 -4 12 -16 12 -27z m75 1 c3
-6 -1 -7 -9 -4 -10 4 -16 1 -16 -7 0 -7 -3 -10 -6 -6 -7 7 4 27 16 27 5 0 12
-4 15 -10z m353 -15 c-3 -3 -9 2 -12 12 -6 14 -5 15 5 6 7 -7 10 -15 7 -18z
m-701 -27 c-3 -7 -5 -2 -5 12 0 14 2 19 5 13 2 -7 2 -19 0 -25z m344 -150 c1
-84 2 -166 3 -183 l1 -30 -133 0 -134 0 -1 183 -2 182 133 0 132 0 1 -152z
m-281 128 c0 -8 -7 -16 -15 -20 -12 -4 -13 -2 -2 14 14 24 17 25 17 6z m345
-26 c3 -5 1 -10 -4 -10 -6 0 -11 5 -11 10 0 6 2 10 4 10 3 0 8 -4 11 -10z
m-345 -28 c0 -5 -7 -9 -15 -9 -8 0 -12 4 -9 9 3 4 9 8 15 8 5 0 9 -4 9 -8z
m627 -24 c-3 -8 -6 -5 -6 6 -1 11 2 17 5 13 3 -3 4 -12 1 -19z m-250 -25 c-3
-10 -5 -4 -5 12 0 17 2 24 5 18 2 -7 2 -21 0 -30z m-384 -54 c-4 -4 -8 9 -7
29 1 54 7 63 11 18 3 -21 1 -42 -4 -47z m-56 19 c-3 -8 -6 -5 -6 6 -1 11 2 17
5 13 3 -3 4 -12 1 -19z m440 -95 c-2 -21 -4 -4 -4 37 0 41 2 58 4 38 2 -21 2
-55 0 -75z m-1027 63 c0 -2 -16 -6 -35 -8 -19 -2 -35 0 -35 4 0 4 16 8 35 8
19 0 35 -2 35 -4z m163 -3 c-13 -2 -33 -2 -45 0 -13 2 -3 4 22 4 25 0 35 -2
23 -4z m64 1 c-3 -3 -12 -4 -19 -1 -8 3 -5 6 6 6 11 1 17 -2 13 -5z m131 -36
c0 -31 -2 -37 -7 -23 -5 11 -7 27 -5 35 1 8 3 18 3 23 1 4 3 7 4 7 2 0 4 -19
5 -42z m643 2 c5 0 9 -10 9 -22 0 -21 -1 -21 -15 6 -8 15 -14 33 -14 40 1 6 3
3 6 -6 2 -10 9 -18 14 -18z m-1064 -102 c-2 -24 -4 -7 -4 37 0 44 2 63 4 43 2
-21 2 -57 0 -80z m650 75 c-3 -10 -5 -4 -5 12 0 17 2 24 5 18 2 -7 2 -21 0
-30z m693 7 c0 -16 -4 -30 -8 -30 -5 0 -7 14 -4 30 2 17 6 30 8 30 2 0 4 -13
4 -30z m-1130 -14 c0 -2 -17 -3 -37 -3 -32 -1 -34 0 -13 6 21 7 50 4 50 -3z
m80 -2 c0 -2 -14 -4 -31 -4 -16 0 -28 4 -25 9 5 8 56 3 56 -5z m-177 -1 c-7
-2 -19 -2 -25 0 -7 3 -2 5 12 5 14 0 19 -2 13 -5z m230 0 c-7 -2 -19 -2 -25 0
-7 3 -2 5 12 5 14 0 19 -2 13 -5z m364 -45 c-1 -36 -7 -53 -17 -56 -12 -4 -13
-2 -4 9 7 8 11 27 9 43 -3 26 2 56 10 56 2 0 3 -23 2 -52z m-287 10 c0 -19 -2
-20 -10 -8 -13 19 -13 30 0 30 6 0 10 -10 10 -22z m-360 -10 c0 -12 -1 -19 -3
-17 -1 2 -9 12 -16 22 -12 14 -11 17 3 17 10 0 16 -8 16 -22z m270 -18 l0 -40
-130 0 -130 0 0 33 c0 19 3 37 7 40 3 4 62 7 130 7 l123 0 0 -40z m51 16 c5 3
9 2 8 -3 -1 -4 0 -11 1 -15 3 -11 7 -25 10 -40 1 -7 6 1 10 17 l8 30 1 -27 c0
-15 -3 -29 -8 -32 -5 -3 -7 -16 -5 -29 2 -12 -1 -8 -8 10 -7 17 -17 35 -22 40
-6 5 -6 2 -1 -7 8 -13 7 -13 -8 -1 -9 7 -17 20 -17 28 0 13 3 13 15 3 9 -7 18
-10 21 -7 3 3 -3 12 -15 19 -12 7 -21 20 -21 28 1 12 3 11 11 -3 6 -9 15 -15
20 -11z m963 -8 c-3 -4 -1 -8 4 -8 13 0 22 -39 11 -46 -19 -12 -38 16 -29 42
6 16 6 24 -1 24 -6 0 -7 5 -3 11 4 8 9 7 15 -2 4 -7 5 -17 3 -21z m-255 -15
c0 -21 -3 -32 -6 -25 -2 6 -9 10 -14 6 -5 -3 -9 2 -9 11 0 9 -4 13 -10 10 -5
-3 -10 0 -10 8 0 7 7 14 15 14 8 0 12 -4 9 -8 -2 -4 0 -10 6 -14 5 -3 10 3 10
14 0 12 2 21 5 21 3 0 5 -17 4 -37z m289 2 c-3 -3 -9 2 -12 12 -6 14 -5 15 5
6 7 -7 10 -15 7 -18z m-712 -22 c-7 -7 -26 7 -26 19 0 6 6 6 15 -2 9 -7 13
-15 11 -17z m380 -20 c-3 -4 -6 -1 -6 6 0 7 -4 10 -9 6 -13 -7 -24 12 -16 26
5 6 13 2 22 -11 8 -12 12 -24 9 -27z m-986 27 c0 -5 -2 -10 -4 -10 -3 0 -8 5
-11 10 -3 6 -1 10 4 10 6 0 11 -4 11 -10z m618 -45 c-3 -3 -9 2 -12 12 -6 14
-5 15 5 6 7 -7 10 -15 7 -18z m662 6 c0 -5 -8 -8 -17 -7 -11 0 -18 -6 -17 -14
1 -10 -8 -17 -24 -18 -43 -3 -38 -12 7 -12 26 0 40 4 36 10 -9 15 24 25 38 11
9 -9 8 -11 -5 -6 -11 4 -18 2 -18 -4 0 -7 20 -11 50 -11 40 0 50 3 50 17 0 15
1 15 18 0 10 -10 25 -17 33 -16 10 0 10 2 2 6 -17 6 -17 20 0 20 7 0 14 -8 14
-18 2 -16 -13 -17 -175 -17 -105 0 -167 3 -152 8 21 7 22 8 5 10 -18 1 -17 3
5 12 31 13 12 22 -35 16 -22 -2 -36 1 -39 9 -4 9 21 13 102 15 112 3 122 2
122 -11z m-1370 -1 c0 -5 -7 -10 -16 -10 -8 0 -13 -4 -10 -9 3 -5 -1 -11 -9
-15 -10 -4 -15 1 -16 17 -1 17 -2 18 -6 5 -3 -12 -14 -18 -31 -18 -21 0 -24 2
-12 10 17 11 6 13 -65 11 -22 -1 -47 3 -55 9 -10 7 21 10 103 10 71 0 117 -4
117 -10z m44 -32 c6 -4 -1 -8 -16 -8 -24 0 -25 2 -15 25 10 20 13 22 16 7 2
-9 8 -20 15 -24z m322 35 c-11 -11 -256 -12 -256 -2 0 5 59 9 132 9 72 0 128
-3 124 -7z m304 -3 c12 -8 10 -10 -10 -11 l-25 -1 27 -9 c42 -16 25 -39 -30
-39 -25 0 -43 3 -39 6 3 3 22 6 41 6 20 0 36 3 36 7 0 4 -14 7 -30 6 -24 -1
-30 2 -25 14 4 13 2 12 -9 -1 -14 -19 -52 -26 -41 -8 4 6 10 8 15 5 4 -3 11 2
14 11 5 12 -2 11 -29 -6 -34 -21 -35 -21 -35 -2 0 24 -28 25 -36 0 -8 -27 -41
-23 -38 5 1 12 3 23 3 25 3 7 198 0 211 -8z m186 2 c-3 -5 -19 -7 -36 -4 -21
3 -30 0 -30 -9 0 -21 13 -36 35 -42 11 -2 -16 -5 -59 -6 -44 0 -77 2 -73 5 3
4 27 6 52 6 25 -1 45 3 45 8 0 6 -9 10 -20 10 -13 0 -20 7 -20 20 0 18 7 20
56 20 30 0 53 -4 50 -8z m184 1 c0 -9 -34 -32 -48 -33 -7 0 -10 5 -7 10 4 6
-9 10 -32 11 -81 1 -77 17 5 18 45 0 82 -3 82 -6z m-1244 -44 c0 -13 -7 -19
-23 -19 -20 0 -31 19 -18 31 13 14 41 6 41 -12z m54 11 c0 -5 -2 -10 -4 -10
-3 0 -8 5 -11 10 -3 6 -1 10 4 10 6 0 11 -4 11 -10z m30 6 c0 -3 -4 -8 -10
-11 -5 -3 -10 -1 -10 4 0 6 5 11 10 11 6 0 10 -2 10 -4z m290 -7 c0 -5 -9 -9
-20 -9 -11 0 -20 4 -20 8 0 4 9 8 20 9 11 1 20 -2 20 -8z m65 -22 c13 -3 9 -5
-12 -6 -28 -1 -33 2 -33 22 1 20 2 20 13 6 7 -9 21 -19 32 -22z m15 23 c0 -5
-5 -10 -11 -10 -5 0 -7 5 -4 10 3 6 8 10 11 10 2 0 4 -4 4 -10z m76 -7 c-3 -6
5 -14 17 -16 15 -3 12 -5 -10 -6 -22 -1 -32 3 -30 12 1 6 -6 11 -15 9 -10 -2
-18 1 -18 5 0 5 14 9 30 8 19 0 29 -4 26 -12z m227 -10 c43 -7 28 -13 -29 -13
-40 0 -54 3 -44 9 8 6 18 7 22 5 4 -3 5 3 1 13 -6 16 -5 17 11 3 10 -8 27 -16
39 -17z m395 10 c4 -7 50 -11 116 -12 61 -1 112 -4 115 -6 2 -3 -71 -5 -163
-5 -92 0 -165 4 -162 9 3 4 17 6 31 3 18 -3 25 0 25 11 0 17 28 17 38 0z m157
7 c3 -5 1 -10 -4 -10 -6 0 -11 5 -11 10 0 6 2 10 4 10 3 0 8 -4 11 -10z m350
0 c4 -6 -6 -10 -22 -9 -25 0 -26 1 -8 9 11 5 21 9 22 9 1 1 5 -3 8 -9z m152
-4 c4 -4 4 -7 -2 -6 -5 1 -19 1 -30 0 -11 -2 3 -6 30 -10 l50 -7 -52 -1 c-45
-2 -52 1 -50 16 1 19 38 25 54 8z m63 4 c0 -5 -2 -10 -4 -10 -3 0 -8 5 -11 10
-3 6 -1 10 4 10 6 0 11 -4 11 -10z m33 -10 c4 -16 0 -20 -21 -19 -16 1 -20 3
-10 6 10 2 15 10 11 19 -3 8 -1 14 5 14 5 0 12 -9 15 -20z m-1612 -7 c13 -16
12 -17 -3 -4 -10 7 -18 15 -18 17 0 8 8 3 21 -13z m1096 11 c-3 -3 -12 -4 -19
-1 -8 3 -5 6 6 6 11 1 17 -2 13 -5z m-1344 -21 c-7 -2 -19 -2 -25 0 -7 3 -2 5
12 5 14 0 19 -2 13 -5z m170 0 c-13 -2 -33 -2 -45 0 -13 2 -3 4 22 4 25 0 35
-2 23 -4z m415 0 c-10 -2 -28 -2 -40 0 -13 2 -5 4 17 4 22 1 32 -1 23 -4z"/>
<path d="M12895 4770 c3 -5 8 -10 11 -10 2 0 4 5 4 10 0 6 -5 10 -11 10 -5 0
-7 -4 -4 -10z"/>
<path d="M12887 4553 c-3 -5 1 -17 9 -28 14 -18 14 -18 14 2 0 23 -15 39 -23
26z"/>
<path d="M12897 4486 c-4 -9 -14 -12 -26 -9 -16 4 -21 1 -21 -14 0 -10 6 -25
13 -32 6 -8 7 -11 2 -8 -7 4 -11 -10 -11 -37 1 -27 5 -43 13 -43 9 0 11 11 9
34 -3 18 0 33 5 33 6 0 7 9 4 21 -4 13 0 27 11 40 9 10 15 22 12 24 -3 3 -8
-1 -11 -9z"/>
<path d="M12897 4440 c3 -11 7 -20 9 -20 2 0 4 9 4 20 0 11 -4 20 -9 20 -5 0
-7 -9 -4 -20z"/>
<path d="M12895 4370 c3 -5 8 -10 11 -10 2 0 4 5 4 10 0 6 -5 10 -11 10 -5 0
-7 -4 -4 -10z"/>
<path d="M12855 4319 c-9 -14 3 -59 15 -59 6 0 10 10 10 23 0 17 2 19 9 7 6
-8 7 -18 4 -24 -3 -5 -1 -6 5 -2 19 12 14 33 -12 50 -17 10 -27 12 -31 5z"/>
<path d="M12856 4241 c-5 -7 -3 -18 3 -24 14 -14 20 -6 11 17 -5 15 -9 16 -14
7z"/>
<path d="M12865 4190 c3 -5 8 -10 11 -10 2 0 4 5 4 10 0 6 -5 10 -11 10 -5 0
-7 -4 -4 -10z"/>
<path d="M12875 4149 c17 -8 20 -18 17 -50 -3 -26 0 -39 8 -39 7 0 10 7 6 17
-4 10 -4 14 0 10 4 -4 13 -2 20 4 9 8 11 5 7 -10 -3 -12 -1 -21 6 -21 6 0 11
3 12 8 0 4 2 15 4 26 3 15 -1 17 -28 13 -18 -3 -27 -3 -20 -1 24 10 -7 54 -37
53 -10 0 -8 -4 5 -10z"/>
<path d="M12969 4105 c0 0 -2 -10 -5 -23 -4 -22 -1 -23 45 -21 50 3 62 19 15
19 -14 0 -23 4 -19 10 3 5 12 7 20 3 8 -3 15 0 15 6 0 9 -59 14 -71 6z"/>
<path d="M13055 4100 c3 -5 8 -10 11 -10 2 0 4 5 4 10 0 6 -5 10 -11 10 -5 0
-7 -4 -4 -10z"/>
<path d="M12330 4070 c0 -6 7 -10 15 -10 8 0 15 2 15 4 0 2 -7 6 -15 10 -8 3
-15 1 -15 -4z"/>
<path d="M11556 4095 c4 -8 8 -15 10 -15 2 0 4 7 4 15 0 8 -4 15 -10 15 -5 0
-7 -7 -4 -15z"/>
</g>
</svg>
